_________________________  Visit us at _________________________
  
http://p2pdl.com  ____________________________  http://p2pdl.com
 
http://cdn.piczend.com/images/1YxqeKxx/1362017074_marine3_bd_spine.jpg

The Marine 3 Homefront 2013 BRRip 720p x264 AAC - PRiSTiNE

Genre: Action
Plot: A Marine must do whatever it takes to save his kidnapped niece and 
stop a terrorist attack masterminded by a radical militia group.
the Immortal Guardians team up to protect the innocence of children all around the world.
Director: Peter Ramsey
Stars: Ashley Bell, Mike Mizanin, Neal McDonough, Michael Eklund
Rated: Rated R for violence and language.

Info: 
http://www.imdb.com/title/tt2334841/

General
Complete name                  : The Marine 3 Homefront 2013 BRRip 720p x264 AAC - PRiSTiNE.mp4
Format                         : MPEG-4
Format profile                 : Base Media
Codec ID                       : isom
File size                      : 503 MiB
Duration                       : 1h 30mn
Overall bit rate mode          : Variable
Overall bit rate               : 781 Kbps

Source                         : 720p Bluray Japhson (Thanks)

Video
Format                         : AVC
Format/Info                    : Advanced Video Codec
Format profile                 : High 10@L4.1
Format settings, CABAC         : Yes
Format settings, ReFrames      : 4 frames
Codec ID                       : avc1
Codec ID/Info                  : Advanced Video Coding
Duration                       : 1h 30mn
Bit rate                       : 699 Kbps
Width                          : 1 280 pixels
Height                         : 720 pixels
Display aspect ratio           : 16:9
Frame rate mode                : Constant
Frame rate                     : 23.976 fps
Bit depth                      : 10 bits
Scan type                      : Progressive
Bits/(Pixel*Frame)             : 0.032
Stream size                    : 450 MiB (89%)

Audio
Format                         : AAC
Bit rate mode                  : Variable
Bit rate                       : 79.9 Kbps
Channel(s)                     : 2 channels
Channel positions              : Front: L R
Sampling rate                  : 48.0 KHz / 24.0 KHz
Compression mode               : Lossy
Stream size                    : 51.5 MiB (10%)
Language                       : English

Subtitle                       : Yes ( English)


Screens: 
http://www.shotpix.com/images/49760935674294586407.jpg 
http://www.shotpix.com/images/51699379875205798817.jpg 
http://www.shotpix.com/images/87330778583701910803.jpg 
http://www.shotpix.com/images/81262573577790603357.jpg

Thumbs: 
http://www.shotpix.com/images/92242960400212068610.jpg
----------------------------------------------------------------------------------------------------


Recommend to you to use latest version of VLC player. Install K-Lite Codec Pack or shark007 codecs
in case of any kind of problem in playback (For non-VLC Media Player users). Alternatively, install
Core AVC codecs, the fastest decoder that there is coupled with Community Center Codec Pack and play
on Windows Media Player Classic. Check sample to be sure.
Enjoy!

Greets to: VYTO, a2zRG, MusiK_KinG, Kuroyukihime, TorDigger, Ash968, StyLishSaLH, Masta and staff members at
ExtraTorrent, TPB, H33T, KAT, 1337x, PublicHD, Ahashare, BTScene, SilverTorrent, LimeTorrents, TorrentMafia,
P2PDL, and all others.

Encoder Notes: Looking For Early Access To Anything You Can Provide DVDScr, R5, DVDR, BluRay, Direct
Audio, Early Music Releases, Seedboxes, Dedicated Servers anything u can provide, Advance / Promo CDs/
DVDs. If You Got anything to offer contact me at "prg@hush.com".